<?xml version="1.0" standalone="no"?>
<!DOCTYPE svg PUBLIC "-//W3C//DTD SVG 20010904//EN"
 "http://www.w3.org/TR/2001/REC-SVG-20010904/DTD/svg10.dtd">
<svg version="1.0" xmlns="http://www.w3.org/2000/svg"
 width="160.000000pt" height="116.000000pt" viewBox="0 0 160.000000 116.000000"
 preserveAspectRatio="xMidYMid meet">

<g transform="translate(0.000000,116.000000) scale(0.100000,-0.100000)"
fill="#000000" stroke="none">
<path d="M618 1096 c-170 -31 -316 -97 -414 -189 -79 -73 -119 -136 -140 -217
-59 -232 132 -461 461 -550 100 -27 338 -38 441 -21 177 31 342 109 444 211
172 172 166 400 -15 569 -99 92 -223 153 -379 187 -99 22 -303 27 -398 10z
m647 -246 c35 0 35 0 35 -45 0 -45 0 -45 -35 -45 l-35 0 0 -155 0 -155 30 -6
c27 -6 30 -10 30 -46 l0 -40 -66 4 c-102 6 -104 10 -104 224 l0 174 -155 0
c-125 0 -155 3 -155 14 0 7 -3 28 -6 45 l-6 31 161 0 161 0 0 25 c0 17 14 35
53 64 l52 40 3 -64 3 -65 34 0z m-570 38 c28 -13 55 -55 55 -85 0 -31 -37 -80
-66 -87 -39 -10 -80 11 -99 50 -20 42 -12 77 27 109 33 28 46 30 83 13z m-257
-37 l102 -1 0 -45 0 -45 -135 0 -135 0 0 43 c0 52 4 57 38 52 15 -1 73 -3 130
-4z m81 -135 c31 -20 41 -74 41 -216 l0 -140 -55 0 -55 0 0 116 c0 131 -7 154
-50 154 l-30 0 0 -135 0 -135 -55 0 -55 0 0 183 c0 101 2 186 4 188 8 7 241
-6 255 -15z m499 -23 l-3 -38 -87 -3 -88 -3 0 -29 0 -30 64 0 c49 0 69 -5 90
-21 24 -19 26 -26 26 -95 0 -108 -9 -115 -148 -112 l-107 3 0 35 0 35 93 3 92
3 0 34 0 35 -75 0 c-74 0 -76 0 -95 33 -29 46 -28 133 2 164 20 21 29 23 130
23 l109 0 -3 -37z m-308 -193 l0 -140 -50 0 -50 0 0 140 0 140 50 0 50 0 0
-140z"/>
<path d="M637 834 c-14 -14 -7 -53 12 -63 26 -14 60 22 45 47 -12 18 -45 27
-57 16z"/>
</g>
</svg>
