 <svg  version="1.0" xmlns="http://www.w3.org/2000/svg"  width="160.000000pt" height="116.000000pt" viewBox="0 0 160.000000 116.000000"  preserveAspectRatio="xMidYMid meet">  <g transform="translate(0.000000,116.000000) scale(0.100000,-0.100000)" fill="#fcfcfc" stroke="none"> <path d="M610 1096 c-255 -46 -453 -177 -532 -353 -17 -37 -22 -68 -23 -133 0 -80 3 -92 37 -162 90 -182 311 -306 601 -339 261 -29 552 58 709 212 274 269 114 629 -337 755 -113 31 -337 41 -455 20z m345 -20 c97 -20 187 -46 219 -63 l39 -20 -56 -43 c-34 -25 -57 -50 -57 -61 0 -18 -10 -19 -149 -19 -91 0 -152 -4 -156 -10 -4 -6 -10 -8 -15 -5 -5 3 -5 -9 1 -27 5 -18 6 -40 4 -49 -3 -10 -2 -20 4 -23 5 -3 -4 -19 -20 -35 -26 -27 -29 -36 -29 -95 0 -59 3 -69 31 -101 29 -33 34 -35 95 -35 50 0 64 -3 64 -15 0 -12 -16 -15 -81 -15 -92 0 -109 -10 -109 -62 0 -53 12 -58 132 -58 105 0 109 1 140 29 30 26 33 34 34 92 1 108 -35 149 -131 149 -30 0 -55 5 -55 10 0 6 33 10 79 10 92 0 105 9 99 70 -3 39 -3 40 29 40 l33 0 0 -169 c0 -164 1 -171 24 -197 20 -24 32 -28 90 -32 79 -5 96 5 96 57 0 40 -14 61 -42 61 -16 0 -18 12 -18 140 0 139 0 140 23 140 34 0 47 19 47 71 0 48 -9 59 -51 59 -16 0 -19 7 -19 50 0 28 4 50 8 50 19 0 102 -63 146 -112 72 -77 107 -161 107 -254 0 -109 -29 -168 -132 -266 -45 -43 -87 -78 -95 -78 -8 0 -14 -4 -14 -9 0 -14 -181 -88 -232 -95 -18 -2 -61 -10 -96 -16 -87 -18 -303 -7 -407 20 -86 22 -226 86 -270 122 -73 61 -140 138 -163 188 -21 45 -26 70 -26 136 0 71 4 88 33 147 19 37 47 78 63 92 16 13 28 27 28 30 0 3 1 4 3 3 1 -1 18 13 38 32 32 31 123 82 219 123 30 13 83 24 230 51 28 5 233 -1 265 -8z m275 -161 l0 -65 35 0 c35 0 35 0 35 -45 l0 -45 -37 0 -38 0 3 -147 c1 -82 5 -154 7 -160 2 -7 16 -13 30 -13 23 0 25 -4 25 -41 l0 -41 -65 4 c-100 6 -99 5 -103 218 l-4 180 -154 0 c-153 0 -154 0 -154 23 0 12 -3 32 -6 45 l-6 22 166 0 166 0 -6 25 c-5 20 1 29 40 56 25 18 46 36 46 41 0 4 5 8 10 8 6 0 10 -28 10 -65z m-210 -223 l0 -38 -90 1 -90 2 0 -34 0 -33 64 0 c49 0 69 -5 90 -21 24 -19 26 -26 26 -94 0 -107 -11 -115 -151 -115 l-106 0 0 38 0 39 93 -5 94 -4 0 41 0 41 -69 0 c-64 0 -71 2 -94 29 -36 43 -37 132 -3 166 24 23 32 25 131 25 l105 0 0 -38z"/> <path d="M612 900 c-18 -11 -35 -27 -39 -35 -3 -10 -9 -12 -17 -6 -6 5 -72 11 -145 14 -108 4 -138 2 -149 -10 -11 -11 -15 -64 -20 -242 -2 -125 -2 -240 2 -255 6 -25 9 -26 71 -26 51 0 66 3 72 18 5 9 8 70 8 135 0 99 2 117 15 115 12 -3 15 -25 17 -113 4 -160 2 -155 72 -155 39 0 63 5 70 14 9 11 11 60 9 170 -3 153 -3 155 -30 183 -27 28 -27 29 -8 41 18 11 24 8 48 -18 39 -44 89 -50 129 -16 64 53 67 114 8 173 -38 38 -66 41 -113 13z m96 -25 c16 -14 33 -36 36 -50 14 -56 -51 -127 -102 -111 -36 12 -64 52 -64 92 0 30 7 44 31 66 39 35 61 35 99 3z m-172 -67 l-1 -48 -132 0 -133 0 0 48 0 47 133 0 133 0 0 -47z m-20 -95 c35 -20 44 -66 44 -214 l0 -139 -55 0 -55 0 0 129 c0 72 -3 132 -7 134 -5 3 -21 7 -38 8 l-30 4 0 -138 0 -137 -57 0 -58 0 0 183 c0 101 2 186 4 188 9 9 233 -7 252 -18z"/> <path d="M637 832 c-22 -24 -21 -35 2 -56 37 -33 79 17 45 55 -21 24 -27 24 -47 1z m35 -27 c0 -5 -5 -11 -11 -13 -6 -2 -11 4 -11 13 0 9 5 15 11 13 6 -2 11 -8 11 -13z"/> <path d="M603 653 c-18 -7 -18 -284 -1 -301 16 -16 100 -16 116 0 17 17 17 279 0 296 -12 12 -91 15 -115 5z m107 -153 l0 -140 -50 0 -50 0 0 140 0 140 50 0 50 0 0 -140z"/> </g> </svg> 