 <svg  version="1.0" xmlns="http://www.w3.org/2000/svg"  width="160.000000pt" height="116.000000pt" viewBox="0 0 160.000000 116.000000"  preserveAspectRatio="xMidYMid meet">  <g transform="translate(0.000000,116.000000) scale(0.050000,-0.050000)" fill="#fcfcfc" stroke="none"> <path d="M2323 1877 c-78 -59 -104 -92 -97 -119 9 -35 -9 -37 -303 -43 l-313 -5 -6 -105 -6 -105 309 0 308 0 8 -348 c9 -432 12 -437 226 -428 l141 6 0 80 c0 73 -5 80 -60 90 l-60 10 -6 295 -5 295 70 0 c39 0 72 7 72 15 17 173 11 195 -56 195 l-65 0 0 125 c0 151 -12 154 -157 42z m192 -193 c104 -10 99 -144 -5 -144 l-70 0 0 -316 c0 -327 9 -364 84 -364 27 0 36 -16 36 -62 l0 -63 -120 9 c-172 12 -169 5 -180 422 l-10 364 -305 6 c-284 5 -305 8 -305 43 0 21 -5 52 -12 69 -11 28 24 32 310 32 243 0 323 6 324 25 1 14 4 40 5 59 2 18 39 61 83 94 l80 60 10 -114 c10 -112 11 -114 75 -120z"/> <path d="M1267 1790 c-130 -55 -167 -200 -77 -306 95 -113 234 -91 300 49 69 146 -80 317 -223 257z m138 -50 c97 -76 87 -230 -17 -277 -71 -33 -99 -29 -159 23 -151 129 20 377 176 254z"/> <path d="M1264 1676 c-67 -67 16 -202 94 -152 56 34 70 84 38 135 -28 45 -95 54 -132 17z m106 -66 c0 -46 -9 -60 -38 -60 -55 0 -86 58 -53 99 42 51 91 30 91 -39z"/> <path d="M531 1631 c-20 -132 -19 -133 276 -127 l263 6 0 100 0 100 -263 6 -262 5 -14 -90z m529 -22 l0 -69 -250 0 -250 0 0 75 0 75 250 -6 250 -6 0 -69z"/> <path d="M518 1465 c-7 -53 2 -729 10 -742 5 -8 57 -14 116 -14 l106 1 6 271 5 272 59 -9 59 -8 5 -263 6 -263 120 0 120 0 6 266 c9 462 -23 504 -391 504 -124 0 -226 -7 -227 -15z m518 -43 c39 -15 64 -173 64 -411 l0 -271 -90 0 -90 0 0 239 c0 269 -17 308 -128 297 l-62 -6 -6 -265 -5 -265 -90 0 -89 0 0 348 c0 211 8 351 20 355 16 6 458 -14 476 -21z"/> <path d="M1557 1420 c-157 -157 -28 -428 198 -416 l125 6 0 -65 0 -65 -181 0 -181 0 6 -83 6 -82 220 4 c286 5 310 22 310 231 0 190 -33 225 -225 234 -132 6 -135 7 -135 60 l0 54 173 6 174 6 1 80 2 80 -216 6 -216 5 -61 -61z m463 -40 l0 -60 -180 0 -180 0 0 -80 0 -80 136 0 c199 0 224 -24 224 -210 0 -196 -19 -210 -283 -210 l-194 0 6 55 6 55 177 0 178 0 0 90 0 90 -144 6 c-185 7 -226 48 -226 226 0 160 28 178 284 178 l196 0 0 -60z"/> <path d="M1232 1283 c-15 -24 -28 -563 -13 -564 219 -23 211 -34 211 294 l0 277 -93 6 c-51 3 -99 -2 -105 -13z m168 -283 l0 -260 -80 0 -80 0 0 260 0 260 80 0 80 0 0 -260z"/> </g> </svg> 